<svg aria-hidden="true" style="position: absolute; width: 0; height: 0; overflow: hidden;" version="1.1" xmlns="http://www.w3.org/2000/svg" xmlns:xlink="http://www.w3.org/1999/xlink">
<defs>
<symbol id="icon-social-twitter-circular" viewBox="0 0 24 24">
<path d="M15.279 10.283c0.358-0.221 0.597-0.521 0.713-0.904-0.349 0.186-0.697 0.312-1.045 0.383-0.312-0.336-0.708-0.507-1.182-0.507-0.464 0-0.855 0.163-1.175 0.479-0.317 0.318-0.478 0.706-0.478 1.158 0 0.137 0.017 0.26 0.052 0.364-1.368-0.048-2.499-0.614-3.391-1.706-0.151 0.267-0.227 0.539-0.227 0.82 0 0.578 0.244 1.036 0.73 1.373-0.277-0.023-0.521-0.094-0.73-0.209 0 0.413 0.121 0.758 0.365 1.062 0.243 0.3 0.557 0.492 0.939 0.573-0.139 0.036-0.285 0.053-0.435 0.053-0.14 0-0.237-0.012-0.296-0.037 0.104 0.337 0.296 0.609 0.574 0.818 0.277 0.21 0.597 0.32 0.957 0.33-0.591 0.465-1.269 0.694-2.035 0.694-0.188 0-0.32-0.002-0.4-0.017 0.754 0.489 1.594 0.733 2.521 0.733 0.951 0 1.792-0.241 2.522-0.723 0.73-0.479 1.271-1.070 1.617-1.767 0.348-0.695 0.521-1.419 0.521-2.174v-0.209c0.336-0.253 0.609-0.538 0.818-0.854-0.298 0.133-0.611 0.222-0.935 0.267z"></path>
<path d="M12 21c-2.49 0-4.635-0.89-6.376-2.646-1.741-1.751-2.624-3.889-2.624-6.354 0-2.488 0.884-4.634 2.627-6.375 1.74-1.741 3.884-2.625 6.373-2.625 2.466 0 4.604 0.883 6.354 2.624 1.756 1.742 2.646 3.888 2.646 6.376 0 2.465-0.889 4.604-2.644 6.357-1.751 1.753-3.889 2.643-6.356 2.643zM12 5c-1.966 0-3.588 0.667-4.958 2.040-1.375 1.372-2.042 2.994-2.042 4.96 0 1.944 0.668 3.562 2.043 4.945 1.372 1.383 2.993 2.055 4.957 2.055 1.943 0 3.56-0.673 4.942-2.057 1.385-1.384 2.058-3.002 2.058-4.943 0-1.963-0.672-3.585-2.055-4.957-1.383-1.375-3-2.043-4.945-2.043z"></path>
</symbol>
<symbol id="icon-social-facebook-circular" viewBox="0 0 24 24">
<path d="M18.354 5.624c-1.75-1.741-3.888-2.624-6.354-2.624-2.489 0-4.633 0.884-6.373 2.625-1.743 1.741-2.627 3.887-2.627 6.375 0 2.465 0.883 4.603 2.624 6.354 1.741 1.756 3.886 2.646 6.376 2.646 2.467 0 4.605-0.89 6.356-2.643 1.755-1.753 2.644-3.892 2.644-6.357 0-2.488-0.89-4.634-2.646-6.376zM16.942 16.943c-1.137 1.139-2.436 1.788-3.942 1.985v-4.928h2v-2h-2v-1.4c0-0.331 0.269-0.6 0.601-0.6h1.399v-2h-1.397c-0.742 0-1.361 0.273-1.857 0.822-0.496 0.547-0.746 1.215-0.746 2.008v1.17h-2v2h2v4.93c-1.522-0.195-2.826-0.845-3.957-1.984-1.375-1.384-2.043-3.002-2.043-4.946 0-1.966 0.667-3.588 2.042-4.96 1.37-1.373 2.992-2.040 4.958-2.040 1.945 0 3.562 0.668 4.945 2.043 1.383 1.372 2.055 2.994 2.055 4.957 0 1.941-0.673 3.559-2.058 4.943z"></path>
</symbol>
<symbol id="icon-social-linkedin-circular" viewBox="0 0 24 24">
<path d="M10.033 15.3h-1.6v-5.199h1.6v5.199zM9.233 9.434c-0.577 0-0.866-0.267-0.866-0.8 0-0.223 0.082-0.412 0.25-0.567 0.166-0.155 0.371-0.233 0.616-0.233 0.577 0 0.866 0.268 0.866 0.801s-0.288 0.799-0.866 0.799zM15.967 15.3h-1.633v-2.9c0-0.755-0.268-1.133-0.801-1.133-0.422 0-0.699 0.211-0.834 0.633-0.043 0.067-0.066 0.201-0.066 0.4v3h-1.633v-3.533c0-0.8-0.012-1.355-0.033-1.666h1.4l0.1 0.699c0.367-0.556 0.9-0.833 1.633-0.833 0.557 0 1.006 0.194 1.35 0.583 0.346 0.389 0.518 0.95 0.518 1.684v3.066z"></path>
<path d="M12 21c-4.963 0-9-4.037-9-9s4.037-9 9-9 9 4.037 9 9-4.037 9-9 9zM12 5c-3.859 0-7 3.141-7 7s3.141 7 7 7 7-3.141 7-7-3.141-7-7-7z"></path>
</symbol>
<symbol id="icon-bookmark" viewBox="0 0 20 20">
<path d="M14 2v17l-4-4-4 4v-17c0-0.553 0.585-1.020 1-1h6c0.689-0.020 1 0.447 1 1z"></path>
</symbol>
<symbol id="icon-chevron-right" viewBox="0 0 20 20">
<path d="M9.163 4.516c0.418 0.408 4.502 4.695 4.502 4.695 0.223 0.219 0.335 0.504 0.335 0.789s-0.112 0.57-0.335 0.787c0 0-4.084 4.289-4.502 4.695-0.418 0.408-1.17 0.436-1.615 0-0.446-0.434-0.481-1.041 0-1.574l3.747-3.908-3.747-3.908c-0.481-0.533-0.446-1.141 0-1.576s1.197-0.409 1.615 0z"></path>
</symbol>
<symbol id="icon-aircraft-take-off" viewBox="0 0 20 20">
<path d="M19.87 6.453c0.119 0.257 0.127 1.29-4.884 3.642l-4.913 2.306c-1.71 0.803-4.191 1.859-5.285 2.151-0.766 0.204-1.497-0.316-1.497-0.316s-2.206-1.975-2.792-2.419c-0.585-0.444-0.535-0.67 0.215-0.91 0.467-0.149 3.13 0.493 4.265 0.78 1.339-0.8 2.562-1.486 3.141-1.798-1.396-1.033-4.008-2.962-4.841-3.55-0.799-0.565 0.010-0.768 0.010-0.768 0.368-0.099 1.162-0.228 1.562-0.144 2.721 0.569 7.263 2.071 7.611 2.186 0.832-0.436 2.128-1.092 2.922-1.465 2.075-0.974 4.327-0.037 4.486 0.305z"></path>
</symbol>
<symbol id="icon-bar-graph" viewBox="0 0 20 20">
<path d="M17 1h-2c-0.552 0-1 0.447-1 1v16.992h4v-16.992c0-0.553-0.447-1-1-1zM11 7h-2c-0.552 0-1 0.447-1 1v10.992h4v-10.992c0-0.553-0.447-1-1-1zM5 13h-2c-0.552 0-1 0.447-1 1v4.992h4v-4.992c0-0.553-0.447-1-1-1z"></path>
</symbol>
<symbol id="icon-chat" viewBox="0 0 20 20">
<path d="M5.8 12.2v-6.2h-3.8c-1.1 0-2 0.9-2 2v6c0 1.1 0.9 2 2 2h1v3l3-3h5c1.1 0 2-0.9 2-2v-1.82c-0.064 0.014-0.132 0.021-0.2 0.021l-7-0.001zM18 1h-9c-1.1 0-2 0.9-2 2v8h7l3 3v-3h1c1.1 0 2-0.899 2-2v-6c0-1.1-0.9-2-2-2z"></path>
</symbol>
<symbol id="icon-graduation-cap" viewBox="0 0 20 20">
<path d="M3.302 12.238c0.464 1.879 1.054 2.701 3.022 3.562 1.969 0.86 2.904 1.8 3.676 1.8s1.648-0.822 3.616-1.684c1.969-0.861 1.443-1.123 1.907-3.002l-5.523 2.686-6.698-3.362zM19.511 7.336l-8.325-4.662c-0.652-0.365-1.72-0.365-2.372 0l-8.326 4.662c-0.652 0.365-0.652 0.963 0 1.328l8.325 4.662c0.652 0.365 1.72 0.365 2.372 0l5.382-3.014-5.836-1.367c-0.225 0.055-0.472 0.086-0.731 0.086-1.052 0-1.904-0.506-1.904-1.131 0-0.627 0.853-1.133 1.904-1.133 0.816 0 1.51 0.307 1.78 0.734l6.182 2.029 1.549-0.867c0.651-0.364 0.651-0.962 0-1.327zM16.967 16.17c-0.065 0.385 1.283 1.018 1.411-0.107 0.579-5.072-0.416-6.531-0.416-6.531l-1.395 0.781c0-0.001 1.183 1.125 0.4 5.857z"></path>
</symbol>
<symbol id="icon-home" viewBox="0 0 20 20">
<path d="M18.672 11h-1.672v6c0 0.445-0.194 1-1 1h-4v-6h-4v6h-4c-0.806 0-1-0.555-1-1v-6h-1.672c-0.598 0-0.47-0.324-0.060-0.748l8.024-8.032c0.195-0.202 0.451-0.302 0.708-0.312 0.257 0.010 0.513 0.109 0.708 0.312l8.023 8.031c0.411 0.425 0.539 0.749-0.059 0.749z"></path>
</symbol>
<symbol id="icon-hour-glass" viewBox="0 0 20 20">
<path d="M15.6 4.576c0-2.139 0-2.348 0-2.348 0-0.789-2.508-2.228-5.6-2.228-3.093 0-5.6 1.439-5.6 2.228 0 0 0 0.209 0 2.348 0 2.141 3.877 3.908 3.877 5.424 0 1.514-3.877 3.281-3.877 5.422s0 2.35 0 2.35c0 0.788 2.507 2.228 5.6 2.228 3.092 0 5.6-1.44 5.6-2.229 0 0 0-0.209 0-2.35s-3.877-3.908-3.877-5.422c0-1.515 3.877-3.282 3.877-5.423zM5.941 2.328c0.696-0.439 2-1.082 4.114-1.082s4.006 1.082 4.006 1.082c0.142 0.086 0.698 0.383 0.317 0.609-0.838 0.497-2.478 1.020-4.378 1.020s-3.484-0.576-4.324-1.074c-0.381-0.225 0.265-0.555 0.265-0.555zM10.501 10c0 1.193 0.996 1.961 2.051 2.986 0.771 0.748 1.826 1.773 1.826 2.435v1.328c-0.97-0.483-3.872-0.955-3.872-2.504 0-0.783-1.013-0.783-1.013 0 0 1.549-2.902 2.021-3.872 2.504v-1.328c0-0.662 1.056-1.688 1.826-2.435 1.055-1.025 2.051-1.793 2.051-2.986s-0.996-1.961-2.051-2.986c-0.771-0.75-1.826-1.775-1.826-2.438l-0.046-0.998c1.026 0.553 2.652 1.078 4.425 1.078 1.772 0 3.406-0.525 4.433-1.078l-0.055 0.998c0 0.662-1.056 1.688-1.826 2.438-1.054 1.025-2.051 1.793-2.051 2.986z"></path>
</symbol>
<symbol id="icon-key" viewBox="0 0 20 20">
<path d="M17.691 4.725c-0.503-2.977-3.22-4.967-6.069-4.441s-5.256 2.816-4.753 5.795c0.107 0.641 0.408 1.644 0.763 2.365l-5.175 7.723c-0.191 0.285-0.299 0.799-0.242 1.141l0.333 1.971c0.058 0.342 0.372 0.572 0.7 0.514l1.516-0.281c0.328-0.059 0.744-0.348 0.924-0.639l2.047-3.311 0.018-0.022 1.386-0.256 2.39-3.879c0.785 0.139 1.912 0.092 2.578-0.031 2.848-0.526 4.087-3.67 3.584-6.649zM15.166 6.252c-0.784 1.17-1.584 0.346-2.703-0.475-1.119-0.818-2.135-1.322-1.352-2.492s2.326-1.455 3.447-0.635c1.12 0.819 1.391 2.432 0.608 3.602z"></path>
</symbol>
<symbol id="icon-location-pin" viewBox="0 0 20 20">
<path d="M10 2.009c-2.762 0-5 2.229-5 4.99 0 4.774 5 11 5 11s5-6.227 5-11c0-2.76-2.238-4.99-5-4.99zM10 9.76c-1.492 0-2.7-1.209-2.7-2.7s1.208-2.7 2.7-2.7c1.49 0 2.699 1.209 2.699 2.7s-1.209 2.7-2.699 2.7z"></path>
</symbol>
<symbol id="icon-magnifying-glass" viewBox="0 0 20 20">
<path d="M17.545 15.467l-3.779-3.779c0.57-0.935 0.898-2.035 0.898-3.21 0-3.417-2.961-6.377-6.378-6.377s-6.186 2.769-6.186 6.186c0 3.416 2.961 6.377 6.377 6.377 1.137 0 2.2-0.309 3.115-0.844l3.799 3.801c0.372 0.371 0.975 0.371 1.346 0l0.943-0.943c0.371-0.371 0.236-0.84-0.135-1.211zM4.004 8.287c0-2.366 1.917-4.283 4.282-4.283s4.474 2.107 4.474 4.474c0 2.365-1.918 4.283-4.283 4.283s-4.473-2.109-4.473-4.474z"></path>
</symbol>
<symbol id="icon-map" viewBox="0 0 20 20">
<path d="M19.447 3.718l-6-3c-0.281-0.141-0.613-0.141-0.895 0l-5.63 2.815-5.606-1.869c-0.306-0.102-0.64-0.051-0.901 0.138s-0.415 0.49-0.415 0.811v13.001c0 0.379 0.214 0.725 0.553 0.894l6 3c0.141 0.070 0.294 0.106 0.447 0.106s0.307-0.035 0.447-0.106l5.63-2.814 5.606 1.869c0.305 0.1 0.64 0.049 0.901-0.139s0.415-0.49 0.415-0.81v-13.002c0.001-0.379-0.213-0.725-0.552-0.894zM8 5.231l4-2v11.763l-4 2v-11.763zM2 4l4 1.333v11.661l-4-2v-10.994zM18 16.227l-4-1.334v-11.662l4 2v10.996z"></path>
</symbol>
<symbol id="icon-medal" viewBox="0 0 20 20">
<path d="M10 10c0.528 0 1.026 0.104 1.504 0.256l-6.077-9.115c-0.059-0.088-0.157-0.141-0.263-0.141h-3.556c-0.117 0-0.188 0.131-0.122 0.229l6.231 9.347c0.687-0.356 1.456-0.576 2.283-0.576zM18.392 1h-3.556c-0.106 0-0.204 0.053-0.263 0.141l-3.823 5.734 2 3 5.764-8.646c0.065-0.098-0.005-0.229-0.122-0.229zM10 11c-2.209 0-4 1.791-4 4s1.791 4 4 4 4-1.791 4-4c0-2.209-1.791-4-4-4zM12.112 15.117c0.062 0.064 0.052 0.158-0.022 0.208s-0.095 0.153-0.049 0.229c0.047 0.076 0.018 0.165-0.065 0.199s-0.125 0.13-0.095 0.214-0.017 0.165-0.104 0.181-0.149 0.101-0.137 0.189-0.051 0.158-0.14 0.155c-0.089-0.003-0.167 0.068-0.174 0.156s-0.083 0.144-0.169 0.123-0.178 0.031-0.203 0.117-0.111 0.124-0.191 0.085c-0.080-0.039-0.18-0.006-0.222 0.072s-0.134 0.098-0.205 0.043-0.175-0.044-0.232 0.024-0.151 0.068-0.209 0-0.162-0.079-0.232-0.024-0.162 0.035-0.205-0.043-0.142-0.111-0.222-0.072c-0.080 0.039-0.166 0-0.191-0.085s-0.116-0.138-0.203-0.117-0.163-0.034-0.169-0.123-0.084-0.159-0.173-0.157c-0.089 0.003-0.152-0.067-0.14-0.155s-0.050-0.173-0.137-0.189-0.135-0.097-0.104-0.181-0.013-0.18-0.095-0.214-0.111-0.123-0.065-0.199c0.047-0.076 0.025-0.179-0.049-0.229s-0.083-0.144-0.022-0.208c0.062-0.064 0.062-0.169 0-0.234s-0.052-0.158 0.022-0.208 0.095-0.153 0.049-0.229c-0.047-0.076-0.018-0.165 0.065-0.199s0.125-0.13 0.095-0.214 0.017-0.165 0.104-0.181 0.149-0.101 0.137-0.189 0.051-0.158 0.14-0.155c0.089 0.003 0.167-0.068 0.174-0.156s0.083-0.144 0.169-0.123 0.178-0.031 0.203-0.117 0.111-0.124 0.191-0.085c0.080 0.039 0.18 0.006 0.222-0.072s0.134-0.098 0.205-0.043 0.175 0.044 0.232-0.024 0.151-0.068 0.209 0 0.162 0.079 0.232 0.024 0.162-0.035 0.205 0.043 0.142 0.111 0.222 0.072c0.080-0.039 0.166 0 0.191 0.085s0.116 0.138 0.203 0.117 0.163 0.034 0.169 0.123 0.085 0.159 0.174 0.156c0.089-0.003 0.152 0.067 0.14 0.155s0.050 0.173 0.137 0.189 0.135 0.097 0.104 0.181 0.013 0.18 0.095 0.214 0.111 0.123 0.065 0.199c-0.047 0.076-0.025 0.179 0.049 0.229s0.083 0.144 0.022 0.208-0.063 0.171-0.001 0.235z"></path>
</symbol>
<symbol id="icon-star" viewBox="0 0 20 20">
<path d="M10 1.3l2.388 6.722h6.412l-5.232 3.948 1.871 6.928-5.439-4.154-5.438 4.154 1.87-6.928-5.233-3.948h6.412l2.389-6.722z"></path>
</symbol>
<symbol id="icon-thumbs-up" viewBox="0 0 20 20">
<path d="M13.648 7.362c-0.133-0.355 3.539-3.634 1.398-6.291-0.501-0.621-2.201 2.975-4.615 4.603-1.332 0.898-4.431 2.81-4.431 3.867v6.842c0 1.271 4.914 2.617 8.648 2.617 1.369 0 3.352-8.576 3.352-9.938 0-1.368-4.221-1.344-4.352-1.7zM5 7.457c-0.658 0-3 0.4-3 3.123v4.848c0 2.721 2.342 3.021 3 3.021 0.657 0-1-0.572-1-2.26v-6.373c0-1.768 1.657-2.359 1-2.359z"></path>
</symbol>
<symbol id="icon-users" viewBox="0 0 20 20">
<path d="M15.989 19.129c0-2.246-2.187-3.389-4.317-4.307-2.123-0.914-2.801-1.684-2.801-3.334 0-0.989 0.648-0.667 0.932-2.481 0.12-0.752 0.692-0.012 0.802-1.729 0-0.684-0.313-0.854-0.313-0.854s0.159-1.013 0.221-1.793c0.064-0.817-0.398-2.56-2.301-3.095-0.332-0.341-0.557-0.882 0.467-1.424-2.24-0.104-2.761 1.068-3.954 1.93-1.015 0.756-1.289 1.953-1.24 2.59 0.065 0.78 0.223 1.793 0.223 1.793s-0.314 0.17-0.314 0.854c0.11 1.718 0.684 0.977 0.803 1.729 0.284 1.814 0.933 1.492 0.933 2.481 0 1.65-0.212 2.21-2.336 3.124-2.131 0.917-2.794 2.387-2.783 4.516 0.003 0.637-0.011 0.871-0.011 0.871h16c0 0-0.011-0.234-0.011-0.871zM18.528 13.365c-1.135-0.457-1.605-1.002-1.605-2.066 0-0.641 0.418-0.432 0.602-1.603 0.077-0.484 0.447-0.008 0.518-1.115 0-0.441-0.202-0.551-0.202-0.551s0.103-0.656 0.143-1.159c0.050-0.627-0.364-2.247-2.268-2.247s-2.318 1.62-2.269 2.247c0.042 0.502 0.144 1.159 0.144 1.159s-0.202 0.109-0.202 0.551c0.071 1.107 0.441 0.631 0.518 1.115 0.184 1.172 0.602 0.963 0.602 1.603 0 1.064-0.438 1.562-1.809 2.152-0.069 0.029-0.12 0.068-0.183 0.102 1.64 0.712 4.226 1.941 4.838 4.447h2.645c0 0 0-1.906 0-2.318 0-1-0.273-1.834-1.472-2.317z"></path>
</symbol>
<symbol id="icon-user-tie" viewBox="0 0 32 32">
<path d="M10 6c0-3.314 2.686-6 6-6s6 2.686 6 6c0 3.314-2.686 6-6 6s-6-2.686-6-6zM24.002 14h-1.107l-6.222 12.633 2.327-11.633-3-3-3 3 2.327 11.633-6.222-12.633h-1.107c-3.998 0-3.998 2.687-3.998 6v10h24v-10c0-3.313 0-6-3.998-6z"></path>
</symbol>
<symbol id="icon-facebook2" viewBox="0 0 32 32">
<path d="M29 0h-26c-1.65 0-3 1.35-3 3v26c0 1.65 1.35 3 3 3h13v-14h-4v-4h4v-2c0-3.306 2.694-6 6-6h4v4h-4c-1.1 0-2 0.9-2 2v2h6l-1 4h-5v14h9c1.65 0 3-1.35 3-3v-26c0-1.65-1.35-3-3-3z"></path>
</symbol>
<symbol id="icon-skype" viewBox="0 0 32 32">
<path d="M13.3 1.169c-0.050-0.031-0.106-0.056-0.156-0.081-0.056 0.012-0.106 0.019-0.162 0.031l0.319 0.050z"></path>
<path d="M1.15 13.156c-0.012 0.056-0.019 0.113-0.025 0.162 0.031 0.050 0.050 0.1 0.081 0.15l-0.056-0.313z"></path>
<path d="M30.837 18.831c0.012-0.056 0.019-0.113 0.031-0.169-0.031-0.050-0.050-0.1-0.081-0.15l0.050 0.319z"></path>
<path d="M18.5 30.719c0.050 0.031 0.106 0.056 0.156 0.081 0.056-0.012 0.113-0.019 0.169-0.025l-0.325-0.056z"></path>
<path d="M30.869 18.663c-0.012 0.056-0.019 0.113-0.031 0.169l-0.056-0.325c0.031 0.056 0.056 0.106 0.087 0.156 0.163-0.9 0.25-1.819 0.25-2.738 0-2.037-0.4-4.019-1.188-5.881-0.762-1.8-1.85-3.419-3.238-4.806s-3.006-2.475-4.8-3.237c-1.863-0.788-3.844-1.188-5.881-1.188-0.963 0-1.925 0.088-2.863 0.269 0 0-0.006 0-0.006 0 0.050 0.025 0.106 0.050 0.156 0.081l-0.319-0.050c0.056-0.012 0.106-0.019 0.162-0.031-1.287-0.681-2.731-1.050-4.194-1.050-2.388 0-4.638 0.931-6.325 2.619s-2.619 3.937-2.619 6.325c0 1.519 0.394 3.019 1.125 4.338 0.012-0.056 0.019-0.113 0.025-0.162l0.056 0.319c-0.031-0.050-0.056-0.1-0.081-0.15-0.15 0.856-0.225 1.731-0.225 2.606 0 2.038 0.4 4.019 1.188 5.881 0.763 1.8 1.85 3.413 3.237 4.8s3.006 2.475 4.806 3.238c1.863 0.788 3.844 1.188 5.881 1.188 0.887 0 1.775-0.081 2.644-0.238-0.050-0.031-0.1-0.056-0.156-0.081l0.325 0.056c-0.056 0.012-0.113 0.019-0.169 0.025 1.337 0.756 2.856 1.163 4.4 1.163 2.387 0 4.637-0.931 6.325-2.619s2.619-3.938 2.619-6.325c-0.006-1.519-0.4-3.019-1.137-4.35zM16.069 25.181c-5.369 0-7.769-2.637-7.769-4.619 0-1.012 0.75-1.725 1.781-1.725 2.3 0 1.7 3.3 5.988 3.3 2.194 0 3.406-1.194 3.406-2.413 0-0.731-0.363-1.544-1.806-1.9l-4.775-1.194c-3.844-0.963-4.544-3.044-4.544-5 0-4.056 3.819-5.581 7.406-5.581 3.306 0 7.2 1.825 7.2 4.263 0 1.044-0.906 1.65-1.938 1.65-1.962 0-1.6-2.713-5.55-2.713-1.963 0-3.044 0.887-3.044 2.156s1.55 1.675 2.894 1.981l3.538 0.787c3.869 0.863 4.85 3.125 4.85 5.25 0 3.294-2.531 5.756-7.637 5.756z"></path>
</symbol>
<symbol id="icon-linkedin" viewBox="0 0 32 32">
<path d="M29 0h-26c-1.65 0-3 1.35-3 3v26c0 1.65 1.35 3 3 3h26c1.65 0 3-1.35 3-3v-26c0-1.65-1.35-3-3-3zM12 26h-4v-14h4v14zM10 10c-1.106 0-2-0.894-2-2s0.894-2 2-2c1.106 0 2 0.894 2 2s-0.894 2-2 2zM26 26h-4v-8c0-1.106-0.894-2-2-2s-2 0.894-2 2v8h-4v-14h4v2.481c0.825-1.131 2.087-2.481 3.5-2.481 2.488 0 4.5 2.238 4.5 5v9z"></path>
</symbol>
<symbol id="icon-pinterest" viewBox="0 0 32 32">
<path d="M16 2.138c-7.656 0-13.863 6.206-13.863 13.863 0 5.875 3.656 10.887 8.813 12.906-0.119-1.094-0.231-2.781 0.050-3.975 0.25-1.081 1.625-6.887 1.625-6.887s-0.412-0.831-0.412-2.056c0-1.925 1.119-3.369 2.506-3.369 1.181 0 1.756 0.887 1.756 1.95 0 1.188-0.756 2.969-1.15 4.613-0.331 1.381 0.688 2.506 2.050 2.506 2.462 0 4.356-2.6 4.356-6.35 0-3.319-2.387-5.638-5.787-5.638-3.944 0-6.256 2.956-6.256 6.019 0 1.194 0.456 2.469 1.031 3.163 0.113 0.137 0.131 0.256 0.094 0.4-0.106 0.438-0.338 1.381-0.387 1.575-0.063 0.256-0.2 0.306-0.463 0.188-1.731-0.806-2.813-3.337-2.813-5.369 0-4.375 3.175-8.387 9.156-8.387 4.806 0 8.544 3.425 8.544 8.006 0 4.775-3.012 8.625-7.194 8.625-1.406 0-2.725-0.731-3.175-1.594 0 0-0.694 2.644-0.863 3.294-0.313 1.206-1.156 2.712-1.725 3.631 1.3 0.4 2.675 0.619 4.106 0.619 7.656 0 13.863-6.206 13.863-13.863 0-7.662-6.206-13.869-13.863-13.869z"></path>
</symbol>
</defs>
</svg>
